<svg version="1" xmlns="http://www.w3.org/2000/svg" width="5461.333" height="5461.333" viewBox="0 0 4096.000000 4096.000000"><path d="M1994.5 197.1C1629.4 207.3 1276.3 325 979 535.5c-227.1 160.8-415.2 370.5-550.7 614-196.1 352.2-270.9 762.7-212.7 1166.5 56.7 393.4 240.1 758.6 522.9 1041.5 178.1 178.1 389.4 317.5 622.1 410.5 288.9 115.5 606.3 156.1 917.9 117.4 408.8-50.8 786.8-235.7 1079-527.9 178.1-178.1 317.5-389.4 410.5-622.1 115.5-288.9 156.1-606.4 117.4-917.9-50.8-408.8-235.7-786.8-527.9-1079C3189 570 2990.9 436.2 2772.8 343.4c-245.1-104.2-509.2-153.8-778.3-146.3zM1846 1725.5V1826h-219v645h-224v-645h-213v-201h656v100.5zm240 122.9c66.4 7 109.7 23.2 140.3 52.6 12.1 11.5 20.9 23.1 28.1 37.1 13.2 25.2 20.5 52.8 23.6 88.4.6 7.7 1 89.3 1 228.2V2471h-90.2l-90.3-.1-21.7-31-21.6-30.9-3.7 6.7c-17.2 31.4-47 52-87 60-13.7 2.7-50.9 2.5-70-.5-85-13.3-140.4-63.5-156.2-141.7-1.6-7.9-1.8-14.5-1.8-54 0-48.7.6-55.9 6.1-77.7 15.2-60.3 55.6-99.2 119.9-115.3 30.2-7.6 50-8.9 120-8.1 30.3.4 59 .4 63.9 0l8.9-.7-.6-13.6c-.9-22.2-5.1-35.7-13.6-43.4-9.1-8.2-15.6-9.8-44.1-10.4-26.2-.6-91 2.7-221.2 11l-18.8 1.2V1892l5.8-2.9c9.2-4.6 34.6-14.5 50-19.5 40.3-13.1 84.2-20 146.7-23 3.9-.2 30.4-.2 59-.1 39.5.2 55.7.7 67.5 1.9zm652.5 3.7c22.6 2.7 40.7 7.9 59 16.8 57.3 28.1 90.4 88.6 103 188.6 6.4 51.3 7.3 141 1.9 201-11.9 133.3-55.5 199.3-143.4 216.9-17.3 3.5-30.1 4.6-51.9 4.6-51.2 0-101.1-10.5-144.3-30.3l-7.8-3.6V2783h-225l.2-462.8.3-462.7h192l16.3 27.5c8.9 15.1 16.7 27.6 17.2 27.8.5.2 4.9-3 9.7-7 43.9-36.5 78.6-51.5 127.8-55.2 7.4-.6 35.8.4 45 1.5z"/><path d="M2027.5 2206.5c-37.9 3.8-41.4 4.4-47.7 7.2-6.7 3-13 9.3-15.8 15.8-3.1 7.3-4.3 19.1-3.7 37.3.6 17.9 1.8 24.3 6.1 31.7 3.1 5.2 7.5 8.8 13.7 11.2 6.5 2.5 36.9 2.5 45.4-.1 13.2-3.9 22.3-11.6 26.7-22.4 2.2-5.6 2.3-6.7 2.6-44.5l.3-38.7-2.3.1c-1.3.1-12.6 1.2-25.3 2.4zM2604.5 2033.1c-20.2 2.6-33.8 8-42.8 17l-5.7 5.7.2 123.8.3 123.8 4 2.8c9.4 6.4 27.8 10.9 53 12.8 30 2.3 41-1 50.5-15.2 6.6-9.9 11.6-28.1 14.5-52.9 4.9-42.7 4.4-124.9-1.1-162.4-4.7-33-13.9-49.5-30.1-54.5-5.4-1.6-9.1-2-21.2-1.9-8 .1-17.7.6-21.6 1z"/></svg>